#Comment line ignore any data following # character 
#Hierarchical Translation and Rotation (.htr) file 
[Header]	
#Header keywords are followed by a single value 
FileType HTR		#Single word string
DataType HTRS		#Translation followed by rotation and scale data
FileVersion 1		#integer
NumSegments 84		#integer
NumFrames 2		#integer
DataFrameRate 30		#integer, data frame rate in this file
EulerRotationOrder ZYX
CalibrationUnits mm
RotationUnits Degrees
GlobalAxisofGravity Y
BoneLengthAxis Y
ScaleFactor 1.00
[SegmentNames&Hierarchy]
#CHILD	PARENT
MASTER GLOBAL
root MASTER
chest root
L_mid_tent01 root
R_mid_tent01 root
spine01 root
Bip01_Neck chest
L_humerus chest
R_humerus chest
weapon_bone chest
Bip01_Head Bip01_Neck
eye_left_bone Bip01_Head
eye_right_bone Bip01_Head
L_forearm L_humerus
L_front_hand L_forearm
L_weapon_bone L_forearm
L_front_hand01_01 L_front_hand
L_front_hand02_01 L_front_hand
L_front_hand03_01 L_front_hand
L_front_hand01_02 L_front_hand01_01
L_front_hand02_02 L_front_hand02_01
L_front_hand03_02 L_front_hand03_01
R_forearm R_humerus
R_front_hand R_forearm
R_weapon_bone R_forearm
R_front_hand01_01 R_front_hand
R_front_hand02_01 R_front_hand
R_front_hand03_01 R_front_hand
R_front_hand01_02 R_front_hand01_01
R_front_hand02_02 R_front_hand02_01
R_front_hand03_02 R_front_hand03_01
null_rope01_connect L_mid_tent01
Rope1_Seg01 null_rope01_connect
Rope1_Seg02 Rope1_Seg01
Rope1_Seg03 Rope1_Seg02
Rope1_Seg04 Rope1_Seg03
Rope1_Seg05 Rope1_Seg04
Rope1_Seg06 Rope1_Seg05
Rope1_Seg07 Rope1_Seg06
Rope1_Seg09 Rope1_Seg07
L_mid_hand01 Rope1_Seg09
L_mid_hand02 Rope1_Seg09
L_mid_hand03 Rope1_Seg09
null_rope02_connect R_mid_tent01
Rope2_Seg01 null_rope02_connect
Rope2_Seg02 Rope2_Seg01
Rope2_Seg03 Rope2_Seg02
Rope2_Seg04 Rope2_Seg03
Rope2_Seg05 Rope2_Seg04
Rope2_Seg06 Rope2_Seg05
Rope2_Seg07 Rope2_Seg06
Rope2_Seg09 Rope2_Seg07
R_mid_hand01 Rope2_Seg09
R_mid_hand02 Rope2_Seg09
R_mid_hand03 Rope2_Seg09
spine02 spine01
spine03 spine02
pelvis spine03
null_rope03_connect pelvis
null_rope04_connect pelvis
Rope3_Seg01 null_rope03_connect
Rope3_Seg02 Rope3_Seg01
Rope3_Seg03 Rope3_Seg02
Rope3_Seg04 Rope3_Seg03
Rope3_Seg05 Rope3_Seg04
Rope3_Seg06 Rope3_Seg05
Rope3_Seg07 Rope3_Seg06
Rope3_Seg08 Rope3_Seg07
Rope3_Seg09 Rope3_Seg08
R_rear_hand01 Rope3_Seg09
R_rear_hand02 Rope3_Seg09
R_rear_hand03 Rope3_Seg09
Rope4_Seg01 null_rope04_connect
Rope4_Seg02 Rope4_Seg01
Rope4_Seg03 Rope4_Seg02
Rope4_Seg04 Rope4_Seg03
Rope4_Seg05 Rope4_Seg04
Rope4_Seg06 Rope4_Seg05
Rope4_Seg07 Rope4_Seg06
Rope4_Seg08 Rope4_Seg07
Rope4_Seg09 Rope4_Seg08
L_rear_hand01 Rope4_Seg09
L_rear_hand02 Rope4_Seg09
L_rear_hand03 Rope4_Seg09
[BasePosition]
#SegmentName Tx, Ty, Tz, Rx, Ry, Rz, BoneLength
MASTER 0.000000 0.000000 0.000000 -90.000000 0.000000 0.000000 10.000000 
root 0.000000 0.000000 0.000000 0.000000 0.000000 0.000000 10.000000 
chest 0.000000 0.000000 0.000000 0.000000 0.000000 0.000000 10.000000 
L_mid_tent01 0.000000 0.000000 0.000000 0.000000 0.000000 0.000000 10.000000 
R_mid_tent01 0.000000 0.000000 0.000000 0.000000 0.000000 0.000000 10.000000 
spine01 0.000000 0.000000 0.000000 0.000000 0.000000 0.000000 10.000000 
Bip01_Neck 0.000000 0.000000 0.000000 0.000000 0.000000 0.000000 10.000000 
L_humerus 0.000000 0.000000 0.000000 0.000000 0.000000 0.000000 10.000000 
R_humerus 0.000000 0.000000 0.000000 0.000000 0.000000 0.000000 10.000000 
weapon_bone 0.000000 0.000000 0.000000 0.000000 0.000000 0.000000 10.000000 
Bip01_Head 0.000000 0.000000 0.000000 0.000000 0.000000 0.000000 10.000000 
eye_left_bone 0.000000 0.000000 0.000000 0.000000 0.000000 0.000000 10.000000 
eye_right_bone 0.000000 0.000000 0.000000 0.000000 0.000000 0.000000 10.000000 
L_forearm 0.000000 0.000000 0.000000 0.000000 0.000000 0.000000 10.000000 
L_front_hand 0.000000 0.000000 0.000000 0.000000 0.000000 0.000000 10.000000 
L_weapon_bone 0.000000 0.000000 0.000000 0.000000 0.000000 0.000000 10.000000 
L_front_hand01_01 0.000000 0.000000 0.000000 0.000000 0.000000 0.000000 10.000000 
L_front_hand02_01 0.000000 0.000000 0.000000 0.000000 0.000000 0.000000 10.000000 
L_front_hand03_01 0.000000 0.000000 0.000000 0.000000 0.000000 0.000000 10.000000 
L_front_hand01_02 0.000000 0.000000 0.000000 0.000000 0.000000 0.000000 10.000000 
L_front_hand02_02 0.000000 0.000000 0.000000 0.000000 0.000000 0.000000 10.000000 
L_front_hand03_02 0.000000 0.000000 0.000000 0.000000 0.000000 0.000000 10.000000 
R_forearm 0.000000 0.000000 0.000000 0.000000 0.000000 0.000000 10.000000 
R_front_hand 0.000000 0.000000 0.000000 0.000000 0.000000 0.000000 10.000000 
R_weapon_bone 0.000000 0.000000 0.000000 0.000000 0.000000 0.000000 10.000000 
R_front_hand01_01 0.000000 0.000000 0.000000 0.000000 0.000000 0.000000 10.000000 
R_front_hand02_01 0.000000 0.000000 0.000000 0.000000 0.000000 0.000000 10.000000 
R_front_hand03_01 0.000000 0.000000 0.000000 0.000000 0.000000 0.000000 10.000000 
R_front_hand01_02 0.000000 0.000000 0.000000 0.000000 0.000000 0.000000 10.000000 
R_front_hand02_02 0.000000 0.000000 0.000000 0.000000 0.000000 0.000000 10.000000 
R_front_hand03_02 0.000000 0.000000 0.000000 0.000000 0.000000 0.000000 10.000000 
null_rope01_connect 0.000000 0.000000 0.000000 0.000000 0.000000 0.000000 10.000000 
Rope1_Seg01 0.000000 0.000000 0.000000 0.000000 0.000000 0.000000 10.000000 
Rope1_Seg02 0.000000 0.000000 0.000000 0.000000 0.000000 0.000000 10.000000 
Rope1_Seg03 0.000000 0.000000 0.000000 0.000000 0.000000 0.000000 10.000000 
Rope1_Seg04 0.000000 0.000000 0.000000 0.000000 0.000000 0.000000 10.000000 
Rope1_Seg05 0.000000 0.000000 0.000000 0.000000 0.000000 0.000000 10.000000 
Rope1_Seg06 0.000000 0.000000 0.000000 0.000000 0.000000 0.000000 10.000000 
Rope1_Seg07 0.000000 0.000000 0.000000 0.000000 0.000000 0.000000 10.000000 
Rope1_Seg09 0.000000 0.000000 0.000000 0.000000 0.000000 0.000000 10.000000 
L_mid_hand01 0.000000 0.000000 0.000000 0.000000 0.000000 0.000000 10.000000 
L_mid_hand02 0.000000 0.000000 0.000000 0.000000 0.000000 0.000000 10.000000 
L_mid_hand03 0.000000 0.000000 0.000000 0.000000 0.000000 0.000000 10.000000 
null_rope02_connect 0.000000 0.000000 0.000000 0.000000 0.000000 0.000000 10.000000 
Rope2_Seg01 0.000000 0.000000 0.000000 0.000000 0.000000 0.000000 10.000000 
Rope2_Seg02 0.000000 0.000000 0.000000 0.000000 0.000000 0.000000 10.000000 
Rope2_Seg03 0.000000 0.000000 0.000000 0.000000 0.000000 0.000000 10.000000 
Rope2_Seg04 0.000000 0.000000 0.000000 0.000000 0.000000 0.000000 10.000000 
Rope2_Seg05 0.000000 0.000000 0.000000 0.000000 0.000000 0.000000 10.000000 
Rope2_Seg06 0.000000 0.000000 0.000000 0.000000 0.000000 0.000000 10.000000 
Rope2_Seg07 0.000000 0.000000 0.000000 0.000000 0.000000 0.000000 10.000000 
Rope2_Seg09 0.000000 0.000000 0.000000 0.000000 0.000000 0.000000 10.000000 
R_mid_hand01 0.000000 0.000000 0.000000 0.000000 0.000000 0.000000 10.000000 
R_mid_hand02 0.000000 0.000000 0.000000 0.000000 0.000000 0.000000 10.000000 
R_mid_hand03 0.000000 0.000000 0.000000 0.000000 0.000000 0.000000 10.000000 
spine02 0.000000 0.000000 0.000000 0.000000 0.000000 0.000000 10.000000 
spine03 0.000000 0.000000 0.000000 0.000000 0.000000 0.000000 10.000000 
pelvis 0.000000 0.000000 0.000000 0.000000 0.000000 0.000000 10.000000 
null_rope03_connect 0.000000 0.000000 0.000000 0.000000 0.000000 0.000000 10.000000 
null_rope04_connect 0.000000 0.000000 0.000000 0.000000 0.000000 0.000000 10.000000 
Rope3_Seg01 0.000000 0.000000 0.000000 0.000000 0.000000 0.000000 10.000000 
Rope3_Seg02 0.000000 0.000000 0.000000 0.000000 0.000000 0.000000 10.000000 
Rope3_Seg03 0.000000 0.000000 0.000000 0.000000 0.000000 0.000000 10.000000 
Rope3_Seg04 0.000000 0.000000 0.000000 0.000000 0.000000 0.000000 10.000000 
Rope3_Seg05 0.000000 0.000000 0.000000 0.000000 0.000000 0.000000 10.000000 
Rope3_Seg06 0.000000 0.000000 0.000000 0.000000 0.000000 0.000000 10.000000 
Rope3_Seg07 0.000000 0.000000 0.000000 0.000000 0.000000 0.000000 10.000000 
Rope3_Seg08 0.000000 0.000000 0.000000 0.000000 0.000000 0.000000 10.000000 
Rope3_Seg09 0.000000 0.000000 0.000000 0.000000 0.000000 0.000000 10.000000 
R_rear_hand01 0.000000 0.000000 0.000000 0.000000 0.000000 0.000000 10.000000 
R_rear_hand02 0.000000 0.000000 0.000000 0.000000 0.000000 0.000000 10.000000 
R_rear_hand03 0.000000 0.000000 0.000000 0.000000 0.000000 0.000000 10.000000 
Rope4_Seg01 0.000000 0.000000 0.000000 0.000000 0.000000 0.000000 10.000000 
Rope4_Seg02 0.000000 0.000000 0.000000 0.000000 0.000000 0.000000 10.000000 
Rope4_Seg03 0.000000 0.000000 0.000000 0.000000 0.000000 0.000000 10.000000 
Rope4_Seg04 0.000000 0.000000 0.000000 0.000000 0.000000 0.000000 10.000000 
Rope4_Seg05 0.000000 0.000000 0.000000 0.000000 0.000000 0.000000 10.000000 
Rope4_Seg06 0.000000 0.000000 0.000000 0.000000 0.000000 0.000000 10.000000 
Rope4_Seg07 0.000000 0.000000 0.000000 0.000000 0.000000 0.000000 10.000000 
Rope4_Seg08 0.000000 0.000000 0.000000 0.000000 0.000000 0.000000 10.000000 
Rope4_Seg09 0.000000 0.000000 0.000000 0.000000 0.000000 0.000000 10.000000 
L_rear_hand01 0.000000 0.000000 0.000000 0.000000 0.000000 0.000000 10.000000 
L_rear_hand02 0.000000 0.000000 0.000000 0.000000 0.000000 0.000000 10.000000 
L_rear_hand03 0.000000 0.000000 0.000000 0.000000 0.000000 0.000000 10.000000 
#Beginning of Data. Separated by tabs
#Fr	Tx	Ty	Tz	Rx	Ry	Rz	SF
[MASTER]
23 0.000000 0.000000 0.000000 0.001660 0.001660 0.001660 0.000000
24 0.000000 0.000000 0.000000 0.001660 0.001660 0.001660 0.000000
[root]
23 -29.284685 -56.520744 1501.567383 -79.594292 -40.472401 -87.197388 1502.916138
24 -28.775944 -56.604622 1501.504883 -78.878922 -39.964573 -87.469627 1502.846924
[chest]
23 -84.512650 -34.090519 0.000000 -4.167800 -2.188781 -174.613861 91.129311
24 -84.512650 -34.090519 0.000000 -3.760050 -1.708640 -176.040131 91.129311
[L_mid_tent01]
23 27.299179 22.179106 -249.918701 3.196724 26.069109 80.475510 252.381699
24 27.299183 22.179106 -249.918701 3.342896 28.762682 80.679962 252.381699
[R_mid_tent01]
23 23.228794 24.509907 226.238495 162.504013 -40.316734 84.643478 228.744751
24 23.228794 24.509907 226.238495 161.505783 -43.846569 86.274048 228.744751
[spine01]
23 -0.361383 -0.195265 0.000000 0.002062 0.001122 32.879829 0.410763
24 -0.361383 -0.195265 0.000000 0.002062 0.001122 32.879829 0.410763
[Bip01_Neck]
23 165.484543 71.581718 0.000119 176.643677 -1.657967 43.431911 180.302734
24 165.484543 71.581718 0.000119 176.643677 -1.657967 43.431911 180.302734
[L_humerus]
23 -13.983130 -135.272980 -120.471481 156.317398 70.210068 -112.010254 181.680161
24 -13.983130 -135.272980 -120.471481 156.317398 70.210068 -112.010254 181.680161
[R_humerus]
23 -13.983309 -135.273102 125.287651 -172.382263 -66.903831 -92.553993 184.909012
24 -13.983309 -135.273102 125.287651 -172.382263 -66.903831 -92.553993 184.909012
[weapon_bone]
23 235.964890 -300.705902 0.000000 0.000000 -89.951546 -128.212341 382.234833
24 235.964890 -300.705902 0.000000 0.000000 -89.951546 -128.212341 382.234833
[Bip01_Head]
23 213.444321 185.715607 11.776941 -0.711890 3.240041 -43.890308 283.173920
24 213.444336 185.715622 11.776942 -3.354746 3.259603 -43.888710 283.173920
[eye_left_bone]
23 -24.626970 125.451866 -64.772606 0.000000 -90.000000 -99.840431 143.318359
24 -24.626970 125.451866 -64.772606 0.000000 -90.000000 -99.840431 143.318359
[eye_right_bone]
23 -24.626970 125.451866 64.327362 0.000000 -89.965736 80.156380 143.117676
24 -24.626970 125.451866 64.327362 0.000000 -89.965736 80.156380 143.117676
[L_forearm]
23 322.776093 0.000000 -0.000119 0.000396 -0.002314 -109.419975 322.776093
24 322.776093 0.000000 -0.000119 0.000396 -0.002314 -109.419975 322.776093
[L_front_hand]
23 241.149185 -0.042021 -3.300071 -178.667953 -1.835447 -27.422350 241.171753
24 241.149185 -0.042021 -3.300071 -178.667953 -1.835447 -27.422350 241.171753
[L_weapon_bone]
23 156.183838 0.000000 0.000000 0.000014 0.000007 0.000001 156.183838
24 156.183838 0.000000 0.000000 0.000014 0.000007 0.000001 156.183838
[L_front_hand01_01]
23 86.095154 20.947098 -0.655860 -0.324538 -0.504461 70.551956 88.609184
24 86.095154 20.947098 -0.655860 -0.333240 -0.501472 71.291092 88.609184
[L_front_hand02_01]
23 86.935165 -11.437475 24.513514 147.441101 -57.531982 -53.228188 91.046425
24 86.935165 -11.437475 24.513514 148.435898 -57.925098 -54.403343 91.046425
[L_front_hand03_01]
23 86.637497 -14.123976 -20.424902 -147.440094 55.748737 -54.982716 90.126129
24 86.637497 -14.123976 -20.424902 -148.367935 56.142250 -56.101849 90.126129
[L_front_hand01_02]
23 71.020905 -0.000179 0.000030 0.000320 -0.002325 -105.655235 71.020905
24 71.020905 -0.000179 0.000030 0.000321 -0.002325 -105.707336 71.020905
[L_front_hand02_02]
23 71.020927 -0.000119 0.000060 0.000320 -0.002325 -105.655235 71.020927
24 71.020927 -0.000119 0.000060 0.000321 -0.002325 -105.707336 71.020927
[L_front_hand03_02]
23 71.020905 -0.000060 0.000060 0.000320 -0.002325 -105.655235 71.020905
24 71.020905 -0.000060 0.000060 0.000321 -0.002325 -105.707336 71.020905
[R_forearm]
23 322.776428 -0.000060 0.000030 0.202103 0.065158 -108.062805 322.776428
24 322.776428 -0.000060 0.000030 0.202103 0.065158 -108.062805 322.776428
[R_front_hand]
23 238.847015 -0.006795 2.210259 -2.635298 -10.645461 -26.312506 238.857239
24 238.847015 -0.006795 2.210259 -2.635298 -10.645461 -26.312506 238.857239
[R_weapon_bone]
23 155.664093 0.002503 -0.000030 0.003487 0.001180 -90.988930 155.664078
24 155.664093 0.002503 -0.000030 0.003487 0.001180 -90.988930 155.664078
[R_front_hand01_01]
23 87.624611 14.231146 22.918642 -152.915573 -59.455009 59.755913 91.683487
24 87.624611 14.231146 22.918642 -154.168335 -59.819523 61.204494 91.683487
[R_front_hand02_01]
23 89.356956 14.367283 -19.491137 152.994308 57.809788 61.851429 92.579636
24 89.356956 14.367283 -19.491137 154.164078 58.176956 63.233932 92.579636
[R_front_hand03_01]
23 87.286232 -22.307278 -0.143439 0.154106 -0.427723 -74.656670 90.091743
24 87.286232 -22.307278 -0.143439 0.161068 -0.423583 -75.473679 90.091743
[R_front_hand01_02]
23 71.020905 0.000060 0.000119 0.002323 -0.000334 106.381714 71.020905
24 71.020905 0.000060 0.000119 0.002323 -0.000334 106.381714 71.020905
[R_front_hand02_02]
23 71.020844 -0.000030 -0.000119 0.002323 -0.000334 106.381714 71.020836
24 71.020844 -0.000030 -0.000119 0.002323 -0.000334 106.381714 71.020836
[R_front_hand03_02]
23 71.020905 0.000000 0.000030 0.002323 -0.000334 106.381714 71.020905
24 71.020905 0.000000 0.000030 0.002323 -0.000334 106.381714 71.020905
[null_rope01_connect]
23 328.732483 0.000000 -0.000238 -117.248070 -76.000862 167.456055 328.732483
24 328.732483 0.000000 -0.000238 -118.412788 -73.760208 167.938080 328.732483
[Rope1_Seg01]
23 -0.000023 0.000007 0.000028 106.585876 5.904693 -156.960312 0.000037
24 -0.000022 0.000006 0.000023 107.627769 6.184061 -158.501923 0.000032
[Rope1_Seg02]
23 139.999863 -0.000179 0.000000 18.299631 -9.592470 -10.997466 139.999863
24 139.999863 -0.000179 0.000000 17.604515 -10.541951 -10.498756 139.999863
[Rope1_Seg03]
23 139.999924 0.000060 -0.000060 30.988924 -23.577814 -17.592539 139.999924
24 139.999924 0.000060 -0.000060 27.887621 -24.073544 -16.093266 139.999924
[Rope1_Seg04]
23 139.999924 -0.000060 -0.000119 14.311724 -31.095667 -4.412966 139.999924
24 139.999924 -0.000060 -0.000119 12.832963 -30.093128 -4.285674 139.999924
[Rope1_Seg05]
23 139.999832 0.000119 -0.000060 -3.470140 -24.734789 17.661371 139.999832
24 139.999832 0.000119 -0.000060 -3.765043 -24.819632 17.886786 139.999832
[Rope1_Seg06]
23 139.999954 0.000119 -0.000060 -3.599117 -16.332321 12.265976 139.999954
24 139.999954 0.000119 -0.000060 -3.599160 -15.951577 12.177926 139.999954
[Rope1_Seg07]
23 139.999985 0.000060 0.000000 -2.485371 -7.891664 4.547667 139.999985
24 139.999985 0.000060 0.000000 -2.474936 -7.572980 4.365565 139.999985
[Rope1_Seg09]
23 121.602913 0.000119 -0.000089 -89.793175 -1.359789 0.847147 121.602913
24 121.602913 0.000119 -0.000089 -89.793175 -1.359789 0.847147 121.602913
[L_mid_hand01]
23 103.859421 1.038730 8.195221 130.544373 -67.584534 -38.866943 104.187431
24 103.859421 1.038730 8.195221 130.544373 -67.584534 -38.866943 104.187431
[L_mid_hand02]
23 105.572853 -4.139662 -10.864139 -168.923172 43.409309 -73.498886 106.211075
24 105.572853 -4.139662 -10.864139 -168.923172 43.409309 -73.498886 106.211075
[L_mid_hand03]
23 104.641464 17.579376 -3.913581 -6.012627 17.808174 74.893669 106.179977
24 104.641464 17.579376 -3.913581 -6.012627 17.808174 74.893669 106.179977
[null_rope02_connect]
23 328.732849 0.000179 -0.000119 -111.995163 34.948505 14.026079 328.732849
24 328.732849 0.000179 -0.000119 -113.934967 30.969929 12.979692 328.732849
[Rope2_Seg01]
23 -0.000110 0.000093 0.000000 -60.391544 19.560089 -4.412461 0.000144
24 -0.000119 0.000092 0.000000 -56.016232 16.280157 -5.731090 0.000150
[Rope2_Seg02]
23 139.999741 -0.000060 -0.000119 -10.336260 1.919306 7.980098 139.999756
24 139.999741 -0.000060 -0.000119 -11.477334 0.954628 9.510561 139.999756
[Rope2_Seg03]
23 140.000107 0.000030 0.000000 -14.892400 0.771676 15.234327 140.000107
24 140.000107 0.000030 0.000000 -14.563577 -2.112397 17.631964 140.000107
[Rope2_Seg04]
23 139.999802 0.000000 -0.000060 -15.359453 -7.105748 27.712826 139.999802
24 139.999802 0.000000 -0.000060 -11.706695 -11.835649 25.833231 139.999802
[Rope2_Seg05]
23 139.999985 -0.000060 0.000119 -7.146703 -9.420864 28.229650 139.999985
24 139.999985 -0.000060 0.000119 -4.719871 -6.776216 29.720598 139.999985
[Rope2_Seg06]
23 139.999893 -0.000030 -0.000119 0.411878 -6.582442 22.080334 139.999893
24 139.999893 -0.000030 -0.000119 2.716779 -3.948203 24.601267 139.999893
[Rope2_Seg07]
23 139.999893 0.000060 -0.000060 2.433007 -3.979027 11.748334 139.999893
24 139.999893 0.000060 -0.000060 3.256284 -2.121247 11.655136 139.999893
[Rope2_Seg09]
23 121.338966 0.000089 -0.000060 33.793236 -1.359788 -0.847141 121.338966
24 121.338966 0.000089 -0.000060 33.793236 -1.359788 -0.847141 121.338966
[R_mid_hand01]
23 104.680779 11.144459 -10.335981 -16.212059 45.237240 70.462852 105.778534
24 104.680779 11.144459 -10.335981 -16.212063 45.237247 70.462852 105.778534
[R_mid_hand02]
23 104.070427 2.443552 8.231699 49.067387 -67.749794 39.286469 104.424065
24 104.070427 2.443552 8.231699 49.067368 -67.749771 39.286453 104.424065
[R_mid_hand03]
23 106.028137 -11.221827 -5.996406 -177.101105 15.551026 -76.585571 106.788818
24 106.028137 -11.221827 -5.996406 -177.101105 15.551026 -76.585571 106.788818
[spine02]
23 129.756927 0.001550 0.000119 0.360061 -4.044797 -12.915058 129.756927
24 129.756927 0.001550 0.000119 0.360061 -4.044797 -12.915058 129.756927
[spine03]
23 78.614067 0.081635 -4.899014 1.896495 3.831288 16.473045 78.766602
24 78.614067 0.081635 -4.899014 1.896495 3.831288 16.473045 78.766602
[pelvis]
23 169.435242 0.051022 0.000000 -0.060465 -0.180225 14.087930 169.435257
24 169.435242 0.051022 0.000000 -0.060465 -0.180225 14.087930 169.435257
[null_rope03_connect]
23 -1.257226 -2.466202 137.391083 47.889771 -76.589592 31.813164 137.418976
24 -1.257226 -2.466202 137.391083 46.306137 -76.098122 32.896114 137.418976
[null_rope04_connect]
23 -1.259640 -2.480268 -137.844437 47.889771 -76.589592 31.813164 137.872513
24 -1.259640 -2.480268 -137.844437 46.306137 -76.098122 32.896114 137.872513
[Rope3_Seg01]
23 0.000010 0.000007 -0.000028 128.495239 -79.850052 7.329479 0.000031
24 0.000010 0.000006 -0.000023 103.831009 -79.445602 30.325050 0.000025
[Rope3_Seg02]
23 139.999924 -0.000119 0.000060 13.423005 -23.866930 0.409309 139.999924
24 139.999924 -0.000119 0.000060 10.484358 -19.495935 -0.499338 139.999924
[Rope3_Seg03]
23 139.999924 -0.000119 0.000119 16.558022 -22.126692 10.504043 139.999924
24 139.999924 -0.000119 0.000119 18.502726 -24.696594 7.512202 139.999924
[Rope3_Seg04]
23 139.999924 0.000119 0.000000 10.772770 -13.652938 8.967672 139.999924
24 139.999924 0.000119 0.000000 13.371174 -15.820763 12.565113 139.999924
[Rope3_Seg05]
23 139.999924 -0.000238 0.000060 15.037790 -19.916050 1.920297 139.999924
24 139.999924 -0.000238 0.000060 14.407820 -19.180344 1.032855 139.999924
[Rope3_Seg06]
23 139.999893 -0.000119 -0.000060 14.158537 -14.472152 4.542320 139.999893
24 139.999893 -0.000119 -0.000060 17.513426 -17.633142 1.963693 139.999893
[Rope3_Seg07]
23 139.999771 0.000060 -0.000119 7.601582 -5.952498 4.759463 139.999771
24 139.999771 0.000060 -0.000119 9.777358 -7.093678 4.841875 139.999771
[Rope3_Seg08]
23 139.999985 -0.000060 0.000000 4.409250 -3.001518 3.149269 139.999985
24 139.999985 -0.000060 0.000000 5.540320 -3.456141 3.371902 139.999985
[Rope3_Seg09]
23 90.185997 -0.000179 -0.000060 89.793228 -1.359877 -0.847183 90.185997
24 90.185997 -0.000179 -0.000060 89.793228 -1.359877 -0.847183 90.185997
[R_rear_hand01]
23 103.366196 -6.073594 -10.757982 -177.714203 24.565960 -73.910950 104.101845
24 103.366196 -6.073594 -10.757982 -177.714203 24.565960 -73.910950 104.101845
[R_rear_hand02]
23 100.509819 12.039542 -7.992327 -12.874834 36.868492 72.167213 101.543350
24 100.509819 12.039542 -7.992327 -12.874829 36.868488 72.167213 101.543350
[R_rear_hand03]
23 101.539970 5.215704 5.435467 71.484581 -71.816628 21.513813 101.819031
24 101.539970 5.215704 5.435467 71.484581 -71.816628 21.513813 101.819031
[Rope4_Seg01]
23 0.000010 0.000038 -0.000114 91.975235 -47.865284 -149.079910 0.000121
24 0.000010 0.000038 -0.000114 87.324745 -48.864388 -143.565674 0.000121
[Rope4_Seg02]
23 139.999985 0.000060 0.000119 -17.045700 6.197865 -16.763775 139.999985
24 139.999985 0.000060 0.000119 -15.210649 2.758305 -17.408804 139.999985
[Rope4_Seg03]
23 139.999924 0.000000 -0.000238 -31.438126 23.166550 -33.918640 139.999924
24 139.999924 0.000000 -0.000238 -32.707726 15.148891 -34.777554 139.999924
[Rope4_Seg04]
23 139.999985 0.000000 0.000119 -8.693051 26.124977 -14.229619 139.999985
24 139.999985 0.000000 0.000119 -13.355568 22.973946 -17.030500 139.999985
[Rope4_Seg05]
23 139.999802 -0.000060 -0.000119 -0.705397 16.982512 -9.319645 139.999802
24 139.999802 -0.000060 -0.000119 -5.625184 19.296339 -15.124788 139.999802
[Rope4_Seg06]
23 139.999924 0.000000 0.000060 4.128582 27.623043 -19.056795 139.999924
24 139.999924 0.000000 0.000060 -2.794700 30.079355 -26.401409 139.999924
[Rope4_Seg07]
23 139.999802 0.000000 0.000000 9.041476 16.146486 -14.050895 139.999802
24 139.999802 0.000000 0.000000 4.437833 13.557081 -11.639887 139.999802
[Rope4_Seg08]
23 139.999924 0.000000 0.000119 3.771787 5.545285 -6.760632 139.999924
24 139.999924 0.000000 0.000119 1.374668 5.156599 -5.275597 139.999924
[Rope4_Seg09]
23 90.185791 0.000060 0.000060 -135.617828 2.228885 0.850567 90.185791
24 90.185791 0.000060 0.000060 -135.617828 2.228885 0.850567 90.185791
[L_rear_hand01]
23 101.696655 -8.392275 -7.654577 -12.874829 -36.868488 107.832764 102.329041
24 101.696655 -8.392275 -7.654577 -12.874829 -36.868488 107.832764 102.329041
[L_rear_hand02]
23 102.726799 -1.568258 5.773216 71.484581 71.816628 158.486160 102.900848
24 102.726799 -1.568258 5.773216 71.484581 71.816628 158.486160 102.900848
[L_rear_hand03]
23 104.552910 9.721220 -10.420293 -177.714203 -24.565960 -106.089035 105.519653
24 104.552910 9.721220 -10.420293 -177.714203 -24.565960 -106.089035 105.519653
